<mxfile host="app.diagrams.net" modified="2022-08-12T01:50:54.182Z" agent="5.0 (Windows NT 10.0; Win64; x64) AppleWebKit/537.36 (KHTML, like Gecko) Chrome/100.0.4896.60 Safari/537.36" etag="8lsI2a1KXm0IWQx5Jcqd" version="20.1.4" type="github">
  <diagram id="KJUusvVZxvrgIaazGVrg" name="第 1 页">
    <mxGraphModel dx="942" dy="634" grid="1" gridSize="10" guides="1" tooltips="1" connect="1" arrows="1" fold="1" page="1" pageScale="1" pageWidth="827" pageHeight="1169" math="0" shadow="0">
      <root>
        <mxCell id="0" />
        <mxCell id="1" parent="0" />
        <mxCell id="yuqw1pbU4K4KJRKfkFZ6-10" value="" style="edgeStyle=orthogonalEdgeStyle;curved=1;orthogonalLoop=1;jettySize=auto;html=1;" edge="1" parent="1" source="yuqw1pbU4K4KJRKfkFZ6-8" target="yuqw1pbU4K4KJRKfkFZ6-9">
          <mxGeometry relative="1" as="geometry" />
        </mxCell>
        <mxCell id="yuqw1pbU4K4KJRKfkFZ6-8" value="KSvgEditor" style="rounded=1;whiteSpace=wrap;html=1;sketch=1;" vertex="1" parent="1">
          <mxGeometry x="70" y="240" width="110" height="40" as="geometry" />
        </mxCell>
        <mxCell id="yuqw1pbU4K4KJRKfkFZ6-9" value="QMainWIndow" style="rounded=1;whiteSpace=wrap;html=1;sketch=1;" vertex="1" parent="1">
          <mxGeometry x="70" y="110" width="110" height="40" as="geometry" />
        </mxCell>
        <mxCell id="yuqw1pbU4K4KJRKfkFZ6-11" value="KCanvasParamsBar" style="rounded=1;whiteSpace=wrap;html=1;sketch=1;" vertex="1" parent="1">
          <mxGeometry x="267.5" y="210" width="120" height="40" as="geometry" />
        </mxCell>
        <mxCell id="yuqw1pbU4K4KJRKfkFZ6-12" value="KSvgMainWindow&lt;br&gt;( public QScrollArea)" style="rounded=1;whiteSpace=wrap;html=1;sketch=1;" vertex="1" parent="1">
          <mxGeometry x="275" y="110" width="115" height="40" as="geometry" />
        </mxCell>
        <mxCell id="yuqw1pbU4K4KJRKfkFZ6-13" value="KMenuBar&amp;nbsp;" style="rounded=1;whiteSpace=wrap;html=1;sketch=1;" vertex="1" parent="1">
          <mxGeometry x="267.5" y="310" width="115" height="40" as="geometry" />
        </mxCell>
        <mxCell id="yuqw1pbU4K4KJRKfkFZ6-15" value="KSvgCanvas" style="rounded=1;whiteSpace=wrap;html=1;sketch=1;" vertex="1" parent="1">
          <mxGeometry x="460" y="110" width="110" height="40" as="geometry" />
        </mxCell>
        <mxCell id="yuqw1pbU4K4KJRKfkFZ6-16" value="Use" style="endArrow=open;endSize=12;dashed=1;html=1;curved=1;" edge="1" parent="1">
          <mxGeometry width="160" relative="1" as="geometry">
            <mxPoint x="390" y="130" as="sourcePoint" />
            <mxPoint x="460" y="130" as="targetPoint" />
          </mxGeometry>
        </mxCell>
        <mxCell id="yuqw1pbU4K4KJRKfkFZ6-18" value="KParambox" style="rounded=1;whiteSpace=wrap;html=1;sketch=1;" vertex="1" parent="1">
          <mxGeometry x="460" y="190" width="120" height="40" as="geometry" />
        </mxCell>
        <mxCell id="yuqw1pbU4K4KJRKfkFZ6-19" value="KParamsBar" style="rounded=1;whiteSpace=wrap;html=1;sketch=1;" vertex="1" parent="1">
          <mxGeometry x="460" y="260" width="120" height="40" as="geometry" />
        </mxCell>
        <mxCell id="yuqw1pbU4K4KJRKfkFZ6-20" value="KGlobalData" style="rounded=1;whiteSpace=wrap;html=1;sketch=1;" vertex="1" parent="1">
          <mxGeometry x="275" y="20" width="120" height="40" as="geometry" />
        </mxCell>
      </root>
    </mxGraphModel>
  </diagram>
</mxfile>
